HIERARCHY
ROOT root
{
	OFFSET 0.000000 0.000000 0.000000
	CHANNELS 6 Xposition Yposition Zposition Zrotation Yrotation Xrotation
	JOINT lhip
	{
		OFFSET 0.058581 -0.082280 -0.017664
		CHANNELS 3 Zrotation Yrotation Xrotation
		JOINT lknee
		{
			OFFSET 0.043451 -0.386469 0.008037
			CHANNELS 3 Zrotation Yrotation Xrotation
			JOINT lankle
			{
				OFFSET -0.014790 -0.426874 -0.037428
				CHANNELS 3 Zrotation Yrotation Xrotation
				JOINT ltoe
				{
					OFFSET 0.041054 -0.060286 0.122042
					CHANNELS 3 Zrotation Yrotation Xrotation
					End Site
					{
						OFFSET 0.000000 0.000000 0.000000
					}
				}
			}
		}
	}
	JOINT rhip
	{
		OFFSET -0.060310 -0.090513 -0.013543
		CHANNELS 3 Zrotation Yrotation Xrotation
		JOINT rknee
		{
			OFFSET -0.043257 -0.383688 -0.004843
			CHANNELS 3 Zrotation Yrotation Xrotation
			JOINT rankle
			{
				OFFSET 0.019056 -0.420046 -0.034562
				CHANNELS 3 Zrotation Yrotation Xrotation
				JOINT rtoe
				{
					OFFSET -0.034840 -0.062106 0.130323
					CHANNELS 3 Zrotation Yrotation Xrotation
					End Site
					{
						OFFSET 0.000000 0.000000 0.000000
					}
				}
			}
		}
	}
	JOINT lowerback
	{
		OFFSET 0.004439 0.124404 -0.038385
		CHANNELS 3 Zrotation Yrotation Xrotation
		JOINT upperback
		{
			OFFSET 0.004488 0.137956 0.026820
			CHANNELS 3 Zrotation Yrotation Xrotation
			JOINT chest
			{
				OFFSET -0.002265 0.056032 0.002855
				CHANNELS 3 Zrotation Yrotation Xrotation
				JOINT lowerneck
				{
					OFFSET -0.013390 0.211636 -0.033468
					CHANNELS 3 Zrotation Yrotation Xrotation
					JOINT upperneck
					{
						OFFSET 0.010113 0.088937 0.050410
						CHANNELS 3 Zrotation Yrotation Xrotation
						End Site
						{
							OFFSET 0.000000 0.000000 0.000000
						}
					}
				}
				JOINT lclavicle
				{
					OFFSET 0.071702 0.114000 -0.018898
					CHANNELS 3 Zrotation Yrotation Xrotation
					JOINT lshoulder
					{
						OFFSET 0.122921 0.045205 -0.019046
						CHANNELS 3 Zrotation Yrotation Xrotation
						JOINT lelbow
						{
							OFFSET 0.255332 -0.015649 -0.022946
							CHANNELS 3 Zrotation Yrotation Xrotation
							JOINT lwrist
							{
								OFFSET 0.265709 0.012698 -0.007375
								CHANNELS 3 Zrotation Yrotation Xrotation
								End Site
								{
									OFFSET 0.000000 0.000000 0.000000
								}
							}
						}
					}
				}
				JOINT rclavicle
				{
					OFFSET -0.082954 0.112472 -0.023707
					CHANNELS 3 Zrotation Yrotation Xrotation
					JOINT rshoulder
					{
						OFFSET -0.113228 0.046853 -0.008472
						CHANNELS 3 Zrotation Yrotation Xrotation
						JOINT relbow
						{
							OFFSET -0.260127 -0.014369 -0.031269
							CHANNELS 3 Zrotation Yrotation Xrotation
							JOINT rwrist
							{
								OFFSET -0.269108 0.006794 -0.006027
								CHANNELS 3 Zrotation Yrotation Xrotation
								End Site
								{
									OFFSET 0.000000 0.000000 0.000000
								}
							}
						}
					}
				}
			}
		}
	}
}
MOTION
Frames: 11
Frame Time: 0.033333
1.426476 0.496261 0.632403 84.682823 1.908176 -175.146405 2.560232 0.637547 -9.224989 -0.466655 -1.178217 3.237446 -10.603305 0.246853 1.292308 0.000000 -0.000000 0.000000 1.061401 -3.045982 -8.103631 -2.629545 -5.746774 5.136151 16.755696 -2.595309 6.732160 0.000000 -0.000000 0.000000 -2.793435 6.083731 9.048502 -2.100104 -1.020042 -10.868688 3.151822 -3.297414 -8.285170 -4.634222 -5.803461 -17.283730 2.764410 -2.185190 -7.615043 -2.587421 -27.560875 -3.188010 -21.721007 -36.083328 -10.721625 62.220161 -47.132385 -50.947539 8.416355 -18.620450 1.835168 -4.284270 24.509830 -9.125024 23.390153 31.199378 -7.489127 -52.505292 52.422090 -45.560188 -3.524717 18.511120 -4.455374 
1.425973 0.495335 0.632308 84.789274 1.873731 -175.457454 2.484370 1.016072 -8.981294 -0.482116 -1.206360 3.163827 -11.093007 0.072320 1.485744 0.000000 -0.000000 0.000000 1.482103 -3.183363 -7.843767 -2.725770 -5.571924 4.937878 16.819767 -2.505365 6.848647 0.000000 -0.000000 0.000000 -2.625683 5.972592 8.962095 -2.030981 -1.237732 -9.820460 2.991552 -2.778259 -8.979571 -4.435229 -4.825603 -18.358903 2.639260 -2.854380 -6.385413 1.386262 -28.126831 -6.308426 -18.777480 -36.304764 -12.102648 61.474314 -47.762727 -49.707571 4.853901 -19.534751 3.797491 -7.189382 25.338789 -10.833344 20.155337 32.235131 -9.729394 -52.357602 52.092590 -44.883625 -1.255152 18.696649 -3.615647 
1.426475 0.494645 0.632290 84.950317 1.899342 -175.675743 2.474033 1.371295 -8.878328 -0.491633 -1.348431 3.159491 -11.443104 0.273461 1.619138 0.000000 -0.000000 0.000000 1.876741 -3.202935 -7.738073 -2.778106 -5.252719 4.825126 16.956829 -2.620980 6.959580 0.000000 -0.000000 0.000000 -2.561542 5.979839 8.747173 -1.931842 -1.311744 -9.258792 2.926944 -2.429027 -9.282674 -4.205102 -3.985788 -18.990334 2.450467 -3.458068 -5.383215 5.363110 -28.795357 -8.953959 -15.315696 -36.638963 -13.750061 59.574498 -47.759104 -48.032141 2.234672 -20.133059 5.018687 -9.918305 25.889703 -12.741339 16.600416 33.333951 -11.951569 -50.654259 51.597328 -43.650797 0.118236 18.885491 -3.569996 
1.427397 0.494336 0.632433 85.063596 1.939123 -175.796849 2.468955 1.563650 -8.831574 -0.486254 -1.611600 3.122513 -11.600589 0.546184 1.684184 0.000000 -0.000000 0.000000 2.086464 -3.163164 -7.729604 -2.781987 -4.911069 4.788176 17.067722 -2.827961 7.004985 0.000000 -0.000000 0.000000 -2.566690 6.019472 8.565406 -1.843667 -1.341670 -9.155059 2.895403 -2.253203 -9.304318 -4.025938 -3.483455 -19.110192 2.285038 -3.903174 -4.822337 8.216815 -29.301166 -10.599612 -12.393925 -36.944092 -15.179193 57.251058 -47.325709 -46.121194 0.745660 -20.341055 5.878104 -11.877213 26.159421 -14.144361 13.890549 34.242084 -13.631956 -48.565755 50.943851 -42.160032 0.971251 19.001230 -3.599712 
1.429138 0.494105 0.632651 85.180306 1.976694 -175.921544 2.439008 1.723830 -8.776366 -0.451504 -2.187073 3.014575 -11.647884 1.012587 1.655743 0.000000 -0.000000 0.000000 2.235846 -3.146438 -7.734787 -2.772721 -4.337488 4.709487 17.185687 -3.301555 6.927333 0.000000 -0.000000 0.000000 -2.662855 6.111555 8.293080 -1.702511 -1.432883 -9.190336 2.871113 -2.079136 -9.209688 -3.762487 -3.004771 -19.052575 2.062120 -4.503665 -4.212402 12.051248 -29.912703 -12.584365 -8.487469 -37.329049 -17.138026 53.084849 -46.205042 -42.907036 -0.433176 -20.512800 6.717276 -14.656256 26.350743 -16.021493 10.536888 35.257077 -15.620437 -45.385643 49.665924 -39.866178 2.357077 18.924518 -3.564060 
1.431296 0.494163 0.632686 85.277197 2.073976 -175.937372 2.402883 1.855893 -8.825366 -0.414803 -2.743658 2.944883 -11.604319 1.576735 1.618827 0.000000 -0.000000 0.000000 2.247743 -3.133003 -7.776053 -2.757139 -3.830360 4.511646 17.230957 -3.971345 6.797569 0.000000 -0.000000 0.000000 -2.735375 6.128588 7.976494 -1.597389 -1.558527 -9.434772 2.821348 -1.924677 -8.960138 -3.519715 -2.599713 -18.963413 1.900963 -5.007714 -3.845398 15.856095 -30.206196 -14.512590 -4.901498 -37.609541 -18.904181 48.088106 -44.583807 -39.127601 -1.105607 -20.828914 7.363716 -17.473717 26.304194 -17.787846 7.417713 36.058274 -17.262784 -41.775246 48.322239 -37.290352 3.384560 18.807672 -3.948301 
1.433754 0.494602 0.632261 85.389896 2.205607 -175.902678 2.393174 2.023086 -8.918894 -0.400711 -3.218291 2.950939 -11.580734 2.021493 1.618294 0.000000 -0.000000 0.000000 2.196168 -3.216302 -7.774550 -2.791307 -3.471031 4.224748 17.211177 -4.604647 6.629689 0.000000 -0.000000 0.000000 -2.696636 6.049524 7.680442 -1.537118 -1.718371 -9.706580 2.770182 -1.771505 -8.731688 -3.369515 -2.277462 -18.808047 1.842992 -5.323746 -3.689655 19.339895 -30.211448 -16.341891 -1.752901 -37.809098 -20.483928 43.097784 -42.642954 -35.575042 -2.534701 -20.954520 8.131454 -20.153292 26.097974 -19.419464 4.400365 36.642592 -18.838636 -37.654408 47.032692 -34.242644 4.871426 18.691192 -3.828089 
1.436268 0.495388 0.631817 85.521247 2.319700 -175.751270 2.393566 2.098767 -9.119057 -0.396038 -3.786037 2.934688 -11.529247 2.434740 1.625155 0.000000 -0.000000 0.000000 2.107215 -3.260934 -7.885217 -2.822939 -3.009085 3.991612 17.047512 -5.286228 6.702082 0.000000 -0.000000 0.000000 -2.560617 5.886964 7.362951 -1.490314 -1.876857 -9.979504 2.701095 -1.639983 -8.512840 -3.238380 -2.143556 -18.446090 1.846642 -5.426172 -3.770679 22.462531 -29.993590 -17.849114 0.991752 -37.811408 -21.797625 38.468265 -40.685099 -32.290688 -3.696362 -21.039966 8.307345 -22.735655 25.780915 -20.799209 1.649537 37.001438 -20.273610 -33.446784 45.615990 -31.212976 6.320962 18.617334 -3.793413 
1.438697 0.496389 0.631783 85.647972 2.410711 -175.474460 2.362641 2.032042 -9.418849 -0.339856 -4.325485 2.847294 -11.457899 2.843116 1.626480 0.000000 -0.000000 0.000000 1.973917 -3.195526 -8.200325 -2.820642 -2.436658 3.990193 16.837921 -5.850529 6.992538 0.000000 -0.000000 0.000000 -2.337960 5.639731 7.066779 -1.488128 -2.009311 -10.289699 2.605247 -1.525899 -8.290735 -3.183585 -2.088442 -17.919464 1.900045 -5.392628 -3.949354 25.077997 -29.608954 -19.148897 3.104154 -37.779496 -22.732178 34.435196 -38.836853 -29.268184 -4.654032 -21.245727 8.156642 -25.020479 25.402884 -21.879613 -0.765717 37.210927 -21.524026 -29.382450 44.228188 -28.372996 7.195007 18.659072 -4.156723 
1.440991 0.497383 0.631780 85.751094 2.539401 -175.276919 2.295865 2.023087 -9.579334 -0.258848 -4.656916 2.762353 -11.386495 3.156905 1.540655 0.000000 -0.000000 0.000000 1.795946 -3.198877 -8.492417 -2.785393 -1.947101 4.225769 16.791409 -6.082975 7.150073 0.000000 -0.000000 0.000000 -2.123614 5.433770 6.925714 -1.513711 -2.109199 -10.478430 2.554800 -1.376138 -8.155720 -3.248959 -2.148206 -17.341021 2.067794 -5.271370 -4.281487 27.195518 -29.188456 -20.446798 4.279384 -37.921156 -23.132555 31.231135 -37.218380 -26.963335 -4.884413 -21.453645 8.213813 -26.890121 25.115949 -22.801205 -2.578146 37.228387 -22.534682 -26.015320 43.057160 -26.135294 8.130410 18.575248 -3.931763 
1.443101 0.498175 0.631459 85.862709 2.682140 -175.239979 2.229792 2.142607 -9.554537 -0.200450 -4.824694 2.787237 -11.390766 3.311390 1.488342 0.000000 -0.000000 0.000000 1.658273 -3.371914 -8.571916 -2.767145 -1.690561 4.422501 16.795268 -6.042988 7.265279 0.000000 -0.000000 0.000000 -1.876620 5.281717 7.036648 -1.574718 -2.185816 -10.548230 2.521796 -1.202637 -8.165855 -3.350908 -2.185286 -16.801982 2.325542 -5.201427 -4.612405 28.898655 -28.864366 -21.481428 4.755106 -37.972697 -23.299885 29.156700 -36.104002 -25.391784 -5.056398 -21.394423 8.448730 -28.272660 25.003143 -23.541034 -3.726621 37.102908 -23.582328 -23.405969 42.142363 -24.403458 9.253236 18.435679 -3.015714 
